<svg   id="icon--btc" viewBox="0 0 32 32" fill="none" xmlns="http://www.w3.org/2000/svg">
<path fill-rule="evenodd" clip-rule="evenodd" d="M16 32C24.8365 32 32 24.8365 32 16C32 7.16344 24.8365 0 16 0C7.16344 0 0 7.16344 0 16C0 24.8365 7.16344 32 16 32Z" fill="#E8EBF1"/>
<path fill-rule="evenodd" clip-rule="evenodd" d="M21.6256 16.8704C21.2238 16.3481 20.6174 15.9893 19.8065 15.7944C20.8391 15.265 21.2929 14.3665 21.1684 13.0988C21.1267 12.639 21.0003 12.2406 20.7888 11.9028C20.5772 11.5651 20.2917 11.2935 19.931 11.0881C19.5707 10.8824 19.1789 10.7258 18.7563 10.6179C18.3337 10.5099 17.8485 10.4316 17.3009 10.3828V7.75H15.7002V10.3097C15.4231 10.3097 15.0004 10.3166 14.4321 10.3306V7.75H12.8312V10.3828C12.6024 10.3898 12.2664 10.3933 11.8229 10.3933L9.61914 10.3828V12.0963H10.7729C11.2997 12.0963 11.608 12.3332 11.6981 12.8067V15.8052C11.7675 15.8052 11.8229 15.8088 11.8645 15.8157H11.6981V20.0156C11.6427 20.3707 11.4418 20.5484 11.0952 20.5484H9.94154L9.61923 22.4604H11.6983C11.83 22.4604 12.0205 22.4621 12.2701 22.4652C12.5195 22.4688 12.7065 22.4705 12.8313 22.4705V25.1346H14.4325V22.5019C14.7235 22.509 15.1462 22.5124 15.7006 22.5124V25.1346H17.3014V22.4705C17.8697 22.4427 18.3738 22.3908 18.8137 22.3139C19.2538 22.237 19.6749 22.1171 20.0767 21.9532C20.4786 21.7897 20.8146 21.5858 21.0848 21.342C21.3552 21.0985 21.5785 20.7884 21.7556 20.4122C21.932 20.036 22.0447 19.6007 22.0931 19.106C22.1836 18.1381 22.0276 17.3928 21.6256 16.8704ZM15.1074 12.398C15.3133 12.3941 15.4841 12.3905 15.6202 12.3867C15.7563 12.383 15.9399 12.3924 16.1711 12.4148C16.4021 12.4373 16.5967 12.4674 16.7549 12.5047C16.9131 12.5421 17.0873 12.604 17.2771 12.6902C17.4671 12.7763 17.619 12.8812 17.7327 13.0049C17.8468 13.1284 17.9433 13.286 18.0223 13.477C18.1015 13.6681 18.1411 13.8873 18.1411 14.1345C18.1411 14.3444 18.1127 14.5355 18.0558 14.7079C17.999 14.8802 17.9133 15.0245 17.7995 15.1406C17.6856 15.2568 17.5683 15.358 17.448 15.4442C17.3279 15.5303 17.1743 15.5996 16.9875 15.6521C16.8009 15.7045 16.6379 15.7458 16.4987 15.7756C16.3594 15.8057 16.1854 15.8263 15.9765 15.8375C15.7675 15.8487 15.6092 15.8564 15.5016 15.8601C15.394 15.8637 15.2469 15.8637 15.06 15.8601C14.8732 15.8564 14.7641 15.8544 14.7325 15.8544V12.4036C14.7767 12.4037 14.9017 12.4018 15.1074 12.398ZM18.918 19.6933C19.0236 19.5777 19.1097 19.4417 19.1768 19.2852C19.2439 19.1288 19.2774 18.9557 19.2774 18.7652C19.2774 18.5204 19.2246 18.3028 19.1186 18.1125C19.013 17.9221 18.8827 17.766 18.7277 17.6435C18.5726 17.5212 18.3699 17.4175 18.1199 17.3325C17.8695 17.2475 17.639 17.1847 17.4277 17.1438C17.2161 17.1031 16.9554 17.0726 16.6455 17.0524C16.3354 17.0318 16.0922 17.0218 15.9161 17.0218C15.7399 17.0218 15.5128 17.025 15.2343 17.0318C14.956 17.0388 14.7887 17.042 14.7323 17.042V20.4886C14.7887 20.4886 14.919 20.4904 15.1234 20.4935C15.3278 20.4969 15.4969 20.4988 15.6308 20.4988C15.7647 20.4988 15.9515 20.4935 16.191 20.4836C16.4306 20.4732 16.6367 20.4597 16.8092 20.4427C16.982 20.4256 17.1826 20.3969 17.4119 20.356C17.6407 20.3151 17.8363 20.2678 17.9984 20.2132C18.1604 20.1588 18.3279 20.0876 18.5004 19.999C18.6729 19.9108 18.8121 19.8087 18.918 19.6933Z" fill="#686868"/>
</svg>
