<svg viewBox="0 0 24 24" id="icon--plain" xmlns="http://www.w3.org/2000/svg">
<path d="M20.7823 3.21794C20.6811 3.11719 20.5532 3.04744 20.4137 3.01688C20.2742 2.98632 20.1289 2.99623 19.9948 3.04544L3.49482 9.04544C3.35252 9.09941 3.23001 9.1954 3.14356 9.32065C3.0571 9.44591 3.0108 9.5945 3.0108 9.74669C3.0108 9.89888 3.0571 10.0475 3.14356 10.1727C3.23001 10.298 3.35252 10.394 3.49482 10.4479L10.6948 13.3279L13.5748 20.5279C13.6289 20.664 13.7217 20.7812 13.8416 20.8652C13.9616 20.9491 14.1035 20.9962 14.2498 21.0004C14.4014 20.9973 14.5484 20.9484 14.6716 20.86C14.7948 20.7716 14.8883 20.648 14.9398 20.5054L20.9398 4.00544C20.9909 3.87274 21.0032 3.72826 20.9754 3.58883C20.9475 3.4494 20.8805 3.32077 20.7823 3.21794ZM14.2498 18.1504L12.1573 12.9004L15.7498 9.30794L14.6923 8.25044L11.0698 11.8729L5.84982 9.75044L18.9973 5.00294L14.2498 18.1504Z"/>
</svg>
