<svg   id="icon--eur" viewBox="0 0 32 32"  xmlns="http://www.w3.org/2000/svg">
<path fill-rule="evenodd" clip-rule="evenodd" d="M16 32C24.8365 32 32 24.8365 32 16C32 7.16344 24.8365 0 16 0C7.16344 0 0 7.16344 0 16C0 24.8365 7.16344 32 16 32Z" fill="#E8EBF1"/>
<path d="M18.75 21.9583C17.6603 21.9593 16.5913 21.6605 15.6601 21.0947C14.7288 20.5288 13.9711 19.7176 13.47 18.75H18.75V16.9167H12.865C12.8192 16.6142 12.7917 16.3117 12.7917 16C12.7917 15.6883 12.8192 15.3858 12.865 15.0833H18.75V13.25H13.47C13.972 12.2831 14.7299 11.4726 15.6609 10.9068C16.592 10.3411 17.6605 10.0418 18.75 10.0417C20.2258 10.0417 21.5825 10.5825 22.6275 11.4808L24.25 9.85834C22.7406 8.49935 20.781 7.74817 18.75 7.75C15.1567 7.75 12.1133 10.0508 10.9767 13.25H7.75V15.0833H10.555C10.4808 15.6922 10.4808 16.3078 10.555 16.9167H7.75V18.75H10.9767C12.1133 21.9492 15.1567 24.25 18.75 24.25C20.8675 24.25 22.7925 23.4525 24.25 22.1417L22.6183 20.5192C21.5825 21.4175 20.235 21.9583 18.75 21.9583Z" fill="#686868"/>
</svg>
