<svg   id="icon--lock" viewBox="0 0 25 24"  xmlns="http://www.w3.org/2000/svg">
<path d="M20 10.875H18.4062V5.625C18.4062 3.96797 17.0633 2.625 15.4062 2.625H9.59375C7.93672 2.625 6.59375 3.96797 6.59375 5.625V10.875H5C4.58516 10.875 4.25 11.2102 4.25 11.625V20.625C4.25 21.0398 4.58516 21.375 5 21.375H20C20.4148 21.375 20.75 21.0398 20.75 20.625V11.625C20.75 11.2102 20.4148 10.875 20 10.875ZM8.28125 5.625C8.28125 4.90078 8.86953 4.3125 9.59375 4.3125H15.4062C16.1305 4.3125 16.7188 4.90078 16.7188 5.625V10.875H8.28125V5.625ZM19.0625 19.6875H5.9375V12.5625H19.0625V19.6875ZM11.8438 16.4297V17.6719C11.8438 17.775 11.9281 17.8594 12.0312 17.8594H12.9688C13.0719 17.8594 13.1562 17.775 13.1562 17.6719V16.4297C13.3497 16.2908 13.4941 16.0941 13.5687 15.8679C13.6432 15.6417 13.6441 15.3977 13.5711 15.1709C13.4982 14.9442 13.3552 14.7465 13.1627 14.6062C12.9702 14.466 12.7382 14.3904 12.5 14.3904C12.2618 14.3904 12.0298 14.466 11.8373 14.6062C11.6448 14.7465 11.5018 14.9442 11.4289 15.1709C11.3559 15.3977 11.3568 15.6417 11.4313 15.8679C11.5059 16.0941 11.6503 16.2908 11.8438 16.4297V16.4297Z"/>
</svg>
