<svg  id="icon--nio" viewBox="0 0 32 32"  xmlns="http://www.w3.org/2000/svg">
<path fill-rule="evenodd" clip-rule="evenodd" d="M16 32C24.8365 32 32 24.8365 32 16C32 7.16344 24.8365 0 16 0C7.16344 0 0 7.16344 0 16C0 24.8365 7.16344 32 16 32Z" fill="#E8EBF1"/>
<rect x="9" y="15.7148" width="14" height="1" fill="#686868"/>
<rect x="9" y="17.7148" width="14" height="1" fill="#686868"/>
<path d="M21.0234 22H18.7344L13.1172 12.8984H13.0547L13.0938 13.4062C13.1667 14.375 13.2031 15.2604 13.2031 16.0625V22H11.5078V10.5781H13.7734L19.375 19.6328H19.4219C19.4115 19.513 19.3906 19.0781 19.3594 18.3281C19.3281 17.5729 19.3125 16.9844 19.3125 16.5625V10.5781H21.0234V22Z" fill="#686868"/>
</svg>
