<svg   id="icon--clip" viewBox="0 0 18 18" fill="none" xmlns="http://www.w3.org/2000/svg">
<path d="M4.20989 16.2998C3.38299 16.2999 2.58922 15.9748 1.99989 15.3948L1.93489 15.3298C1.63879 15.0409 1.40352 14.6956 1.24294 14.3143C1.08236 13.9331 0.999718 13.5235 0.999887 13.1098C0.998841 12.6619 1.08669 12.2183 1.25835 11.8046C1.43 11.3909 1.68205 11.0154 1.99989 10.6998L9.74989 3.03479C10.5373 2.21493 11.6153 1.73717 12.7516 1.70444C13.8879 1.6717 14.9916 2.08662 15.8249 2.85979C16.2007 3.23469 16.4982 3.68065 16.6999 4.17167C16.9016 4.66269 17.0036 5.18896 16.9999 5.71979C16.9954 6.31265 16.8739 6.89878 16.6422 7.4445C16.4105 7.99023 16.0733 8.4848 15.6499 8.89979L8.68489 15.7998C8.64159 15.858 8.58614 15.9062 8.52238 15.9408C8.45862 15.9755 8.38807 15.9958 8.31565 16.0005C8.24323 16.0051 8.17067 15.9939 8.103 15.9677C8.03533 15.9415 7.97417 15.9009 7.92379 15.8487C7.8734 15.7964 7.83499 15.7339 7.81121 15.6653C7.78744 15.5967 7.77887 15.5238 7.78611 15.4516C7.79336 15.3794 7.81623 15.3096 7.85314 15.2471C7.89006 15.1847 7.94013 15.131 7.99989 15.0898L14.9449 8.18979C15.2747 7.86783 15.5377 7.48389 15.7188 7.06002C15.8998 6.63615 15.9953 6.18069 15.9999 5.71979C16.0035 5.32092 15.9276 4.92532 15.7764 4.55616C15.6253 4.18699 15.4021 3.85166 15.1199 3.56979C14.4738 2.98123 13.6225 2.6698 12.7491 2.70253C11.8757 2.73526 11.0501 3.10952 10.4499 3.74479L2.72489 11.4098C2.49724 11.6308 2.31589 11.895 2.19142 12.1869C2.06694 12.4788 2.00183 12.7925 1.99989 13.1098C1.99882 13.3884 2.05307 13.6645 2.1595 13.922C2.26593 14.1794 2.42242 14.4132 2.61989 14.6098L2.68489 14.6748C3.13226 15.0868 3.72352 15.3066 4.33136 15.2869C4.93921 15.2673 5.51504 15.0098 5.93489 14.5698L12.6099 7.96979C12.7361 7.84216 12.8356 7.69063 12.9026 7.52408C12.9696 7.35752 13.0026 7.17929 12.9999 6.99979C13.001 6.84389 12.971 6.68933 12.9118 6.54512C12.8526 6.4009 12.7652 6.26992 12.6549 6.15979C12.4024 5.92825 12.069 5.80528 11.7266 5.81745C11.3842 5.82961 11.0603 5.97592 10.8249 6.22479L6.22489 10.7848C6.13074 10.8783 6.0033 10.9305 5.87062 10.9301C5.73794 10.9296 5.61088 10.8764 5.51739 10.7823C5.4239 10.6881 5.37164 10.5607 5.37211 10.428C5.37258 10.2953 5.42574 10.1683 5.51989 10.0748L10.1399 5.49979C10.5634 5.06595 11.1404 4.81599 11.7466 4.80383C12.3527 4.79167 12.9393 5.01829 13.3799 5.43479C13.5825 5.64104 13.7417 5.88578 13.8482 6.15457C13.9547 6.42336 14.0063 6.71075 13.9999 6.99979C13.9994 7.31105 13.9367 7.61908 13.8157 7.90583C13.6946 8.19259 13.5176 8.45231 13.2949 8.66979L6.63989 15.2898C5.99483 15.9338 5.12141 16.2969 4.20989 16.2998V16.2998Z" fill="#686868"/>
</svg>
