<svg   id="icon--eth" viewBox="0 0 32 32"  xmlns="http://www.w3.org/2000/svg">
<path fill-rule="evenodd" clip-rule="evenodd" d="M16 32C24.8365 32 32 24.8365 32 16C32 7.16344 24.8365 0 16 0C7.16344 0 0 7.16344 0 16C0 24.8365 7.16344 32 16 32Z" fill="#E8EBF1"/>
<path fill-rule="evenodd" clip-rule="evenodd" d="M16.7256 7.58008H15.3661L9.77734 17.5687L15.3661 25.0346H16.7256L22.2402 17.5687L16.7256 7.58008ZM15.3641 15.066L12.141 16.3073L15.3641 10.3472V15.066ZM15.3641 16.5202V18.6488L12.5708 17.5845L15.3641 16.5202ZM16.8683 16.5202L19.6616 17.5845L16.8683 18.6488V16.5202ZM20.0914 16.3073L16.8683 15.081V10.3472L20.0914 16.3073ZM16.0421 23.7574L12.5708 19.0746L16.048 20.3818L19.4468 19.1025L16.0421 23.7574Z" fill="#686868"/>
</svg>
