<svg  id="icon--chart" viewBox="0 0 18 18"  xmlns="http://www.w3.org/2000/svg">
<path d="M4.5 15.7496H2.25C2.05109 15.7496 1.86032 15.6706 1.71967 15.53C1.57902 15.3893 1.5 15.1985 1.5 14.9996V8.99963C1.5 8.80072 1.57902 8.60996 1.71967 8.4693C1.86032 8.32865 2.05109 8.24963 2.25 8.24963H4.5C4.69891 8.24963 4.88968 8.32865 5.03033 8.4693C5.17098 8.60996 5.25 8.80072 5.25 8.99963V14.9996C5.25 15.1985 5.17098 15.3893 5.03033 15.53C4.88968 15.6706 4.69891 15.7496 4.5 15.7496ZM9.75 15.7496H7.5C7.30109 15.7496 7.11032 15.6706 6.96967 15.53C6.82902 15.3893 6.75 15.1985 6.75 14.9996V2.24963C6.75 2.05072 6.82902 1.85996 6.96967 1.7193C7.11032 1.57865 7.30109 1.49963 7.5 1.49963H9.75C9.94891 1.49963 10.1397 1.57865 10.2803 1.7193C10.421 1.85996 10.5 2.05072 10.5 2.24963V14.9996C10.5 15.1985 10.421 15.3893 10.2803 15.53C10.1397 15.6706 9.94891 15.7496 9.75 15.7496ZM15 15.7496H12.75C12.5511 15.7496 12.3603 15.6706 12.2197 15.53C12.079 15.3893 12 15.1985 12 14.9996V6.74963C12 6.55072 12.079 6.35996 12.2197 6.2193C12.3603 6.07865 12.5511 5.99963 12.75 5.99963H15C15.1989 5.99963 15.3897 6.07865 15.5303 6.2193C15.671 6.35996 15.75 6.55072 15.75 6.74963V14.9996C15.75 15.1985 15.671 15.3893 15.5303 15.53C15.3897 15.6706 15.1989 15.7496 15 15.7496Z" />
</svg>
