<svg   id="icon--eth-blue" viewBox="0 0 42 42" fill="none" xmlns="http://www.w3.org/2000/svg">
<g clip-path="url(#clip0)">
<path fill-rule="evenodd" clip-rule="evenodd" d="M21 42C32.5979 42 42 32.5979 42 21C42 9.40202 32.5979 0 21 0C9.40202 0 0 9.40202 0 21C0 32.5979 9.40202 42 21 42Z" fill="#1B86FA"/>
<path fill-rule="evenodd" clip-rule="evenodd" d="M21.9529 9.948H20.1684L12.8333 23.0581L20.1684 32.8571H21.9529L29.1907 23.0581L21.9529 9.948ZM20.1659 19.7732L15.9355 21.4025L20.1659 13.5799V19.7732ZM20.1659 21.6819V24.4757L16.4996 23.0789L20.1659 21.6819ZM22.1401 21.6819L25.8064 23.0789L22.1401 24.4757V21.6819ZM26.3704 21.4025L22.1401 19.793V13.5799L26.3704 21.4025ZM21.0557 31.1808L16.4996 25.0345L21.0635 26.7502L25.5244 25.0712L21.0557 31.1808Z" fill="white"/>
</g>
<defs>
<clipPath id="clip0">
<rect width="42" height="42" fill="white"/>
</clipPath>
</defs>
</svg>
