<svg   id="icon--usd" viewBox="0 0 32 32" fill="none" xmlns="http://www.w3.org/2000/svg">
<path fill-rule="evenodd" clip-rule="evenodd" d="M16 32C24.8365 32 32 24.8365 32 16C32 7.16344 24.8365 0 16 0C7.16344 0 0 7.16344 0 16C0 24.8365 7.16344 32 16 32Z" fill="#E8EBF1"/>
<path d="M11.4166 18.75H13.25C13.25 19.74 14.5058 20.5833 16 20.5833C17.4941 20.5833 18.75 19.74 18.75 18.75C18.75 17.7417 17.7966 17.375 15.78 16.8892C13.8366 16.4033 11.4166 15.7983 11.4166 13.25C11.4166 11.6092 12.7641 10.2158 14.625 9.74833V7.75H17.375V9.74833C19.2358 10.2158 20.5833 11.6092 20.5833 13.25H18.75C18.75 12.26 17.4941 11.4167 16 11.4167C14.5058 11.4167 13.25 12.26 13.25 13.25C13.25 14.2583 14.2033 14.625 16.22 15.1108C18.1633 15.5967 20.5833 16.2017 20.5833 18.75C20.5833 20.3908 19.2358 21.7842 17.375 22.2517V24.25H14.625V22.2517C12.7641 21.7842 11.4166 20.3908 11.4166 18.75Z" fill="#686868"/>
</svg>
