<svg  id="icon--btc-orange"  viewBox="0 0 42 42" fill="none" xmlns="http://www.w3.org/2000/svg">
<path fill-rule="evenodd" clip-rule="evenodd" d="M21 42C32.5979 42 42 32.5979 42 21C42 9.40202 32.5979 0 21 0C9.40202 0 0 9.40202 0 21C0 32.5979 9.40202 42 21 42Z" fill="#F97403"/>
<path fill-rule="evenodd" clip-rule="evenodd" d="M28.3842 22.1424C27.8568 21.4569 27.0609 20.986 25.9967 20.7301C27.352 20.0353 27.9476 18.856 27.7841 17.1921C27.7294 16.5887 27.5635 16.0658 27.2859 15.6225C27.0082 15.1792 26.6334 14.8227 26.1601 14.5531C25.6871 14.2831 25.1729 14.0776 24.6182 13.9359C24.0636 13.7942 23.4267 13.6914 22.7081 13.6275V10.1719H20.6071V13.5315C20.2434 13.5315 19.6886 13.5406 18.9428 13.5589V10.1719H16.8416V13.6275C16.5413 13.6366 16.1003 13.6413 15.5181 13.6413L12.6257 13.6275V15.8764H14.1401C14.8314 15.8764 15.2361 16.1873 15.3543 16.8088V20.7444C15.4454 20.7444 15.5181 20.749 15.5727 20.7581H15.3543V26.2704C15.2816 26.7365 15.018 26.9697 14.5631 26.9697H13.0489L12.6258 29.4792H15.3546C15.5275 29.4792 15.7775 29.4815 16.1051 29.4856C16.4324 29.4903 16.6779 29.4925 16.8417 29.4925V32.9891H18.9432V29.5337C19.3252 29.543 19.8799 29.5475 20.6076 29.5475V32.9891H22.7086V29.4925C23.4546 29.456 24.1162 29.3879 24.6936 29.2869C25.2712 29.186 25.8239 29.0286 26.3513 28.8136C26.8788 28.599 27.3198 28.3313 27.6744 28.0114C28.0293 27.6918 28.3224 27.2847 28.5548 26.791C28.7864 26.2972 28.9343 25.7259 28.9978 25.0767C29.1166 23.8063 28.9118 22.8281 28.3842 22.1424ZM19.8291 16.2724C20.0993 16.2673 20.3235 16.2625 20.5021 16.2575C20.6807 16.2527 20.9217 16.265 21.2251 16.2945C21.5283 16.324 21.7837 16.3634 21.9914 16.4124C22.199 16.4615 22.4277 16.5427 22.6768 16.6559C22.9262 16.7688 23.1255 16.9066 23.2748 17.0689C23.4245 17.2311 23.5512 17.4378 23.6549 17.6885C23.7589 17.9394 23.8108 18.2271 23.8108 18.5515C23.8108 18.827 23.7735 19.0778 23.6988 19.3041C23.6242 19.5302 23.5118 19.7197 23.3624 19.8721C23.213 20.0245 23.059 20.1574 22.9011 20.2705C22.7434 20.3835 22.5418 20.4745 22.2967 20.5434C22.0518 20.6122 21.8378 20.6663 21.6551 20.7055C21.4723 20.745 21.2439 20.772 20.9697 20.7867C20.6954 20.8014 20.4877 20.8115 20.3465 20.8164C20.2052 20.8211 20.0121 20.8211 19.7669 20.8164C19.5217 20.8115 19.3785 20.8089 19.337 20.8089V16.2798C19.395 16.2799 19.5591 16.2773 19.8291 16.2724ZM24.8305 25.8475C24.9691 25.6957 25.0821 25.5172 25.1702 25.3119C25.2583 25.1065 25.3021 24.8794 25.3021 24.6294C25.3021 24.3081 25.2328 24.0225 25.0938 23.7727C24.9552 23.5228 24.7841 23.3179 24.5807 23.157C24.3772 22.9965 24.1111 22.8605 23.7829 22.7489C23.4544 22.6373 23.1517 22.5549 22.8744 22.5013C22.5968 22.4478 22.2546 22.4078 21.8479 22.3812C21.4408 22.3543 21.1216 22.3411 20.8905 22.3411C20.6593 22.3411 20.3612 22.3453 19.9957 22.3543C19.6304 22.3634 19.4107 22.3677 19.3367 22.3677V26.8913C19.4108 26.8913 19.5817 26.8937 19.8501 26.8977C20.1183 26.9022 20.3403 26.9046 20.516 26.9046C20.6917 26.9046 20.9369 26.8977 21.2512 26.8847C21.5658 26.8711 21.8362 26.8534 22.0627 26.831C22.2895 26.8086 22.5528 26.7709 22.8538 26.7172C23.1541 26.6636 23.4107 26.6015 23.6235 26.5298C23.8361 26.4584 24.0559 26.3649 24.2824 26.2487C24.5088 26.1329 24.6915 25.9989 24.8305 25.8475Z" fill="white"/>
</svg>
