<svg viewBox="0 0 98 24" fill="none" xmlns="http://www.w3.org/2000/svg">
<path d="M19.038 20.1108H9.8126C5.41938 20.1108 1.82785 16.4625 1.82785 12C1.82785 7.53747 5.41938 3.88925 9.8126 3.88925C12.2176 3.88925 14.4624 4.9316 16.0336 6.85342C16.3543 7.2443 16.9636 7.30945 17.3484 6.98372C17.7332 6.65798 17.7973 6.0391 17.4767 5.6482C15.5847 3.3355 12.8269 2 9.87672 2C4.39322 2 0 6.5277 0 12C0 17.4723 4.45736 22 9.84465 22H19.07C19.5831 22 20 21.6091 20 21.0554C20 20.5016 19.5511 20.1108 19.038 20.1108ZM4.74596 12C4.74596 9.16612 7.02275 6.82085 9.84465 6.82085C11.3518 6.82085 12.7948 7.5049 13.7569 8.67753C14.0775 9.0684 14.6868 9.13355 15.0716 8.80782C15.4564 8.4821 15.5206 7.8632 15.1999 7.47232C13.8851 5.84365 11.929 4.89902 9.84465 4.89902C5.99659 4.89902 2.88606 8.05863 2.88606 11.9674C2.88606 15.8762 5.99659 19.0358 9.84465 19.0358H16.9857C17.4987 19.0358 17.9156 18.645 17.9156 18.0912C17.9156 17.5375 17.5308 17.1466 16.9857 17.1466H9.8126C7.02275 17.1792 4.74596 14.8339 4.74596 12ZM9.84465 14.2801L9.78053 16.1042H19.07C19.5831 16.1042 20 15.7134 20 15.1596C20 14.6059 19.6152 14.2801 19.1342 14.2801H9.84465Z" fill="url(#paint0_linear)"/>
<path d="M24.8206 11.664C24.8206 10.416 25.0906 9.306 25.6306 8.334C26.1706 7.35 26.9206 6.588 27.8806 6.048C28.8526 5.496 29.9506 5.22 31.1746 5.22C32.6746 5.22 33.9586 5.616 35.0266 6.408C36.0946 7.2 36.8086 8.28 37.1686 9.648H33.7846C33.5326 9.12 33.1726 8.718 32.7046 8.442C32.2486 8.166 31.7266 8.028 31.1386 8.028C30.1906 8.028 29.4226 8.358 28.8346 9.018C28.2466 9.678 27.9526 10.56 27.9526 11.664C27.9526 12.768 28.2466 13.65 28.8346 14.31C29.4226 14.97 30.1906 15.3 31.1386 15.3C31.7266 15.3 32.2486 15.162 32.7046 14.886C33.1726 14.61 33.5326 14.208 33.7846 13.68H37.1686C36.8086 15.048 36.0946 16.128 35.0266 16.92C33.9586 17.7 32.6746 18.09 31.1746 18.09C29.9506 18.09 28.8526 17.82 27.8806 17.28C26.9206 16.728 26.1706 15.966 25.6306 14.994C25.0906 14.022 24.8206 12.912 24.8206 11.664ZM45.4975 18L42.8695 13.23H42.1315V18H39.0535V5.364H44.2195C45.2155 5.364 46.0615 5.538 46.7575 5.886C47.4655 6.234 47.9935 6.714 48.3415 7.326C48.6895 7.926 48.8635 8.598 48.8635 9.342C48.8635 10.182 48.6235 10.932 48.1435 11.592C47.6755 12.252 46.9795 12.72 46.0555 12.996L48.9715 18H45.4975ZM42.1315 11.052H44.0395C44.6035 11.052 45.0235 10.914 45.2995 10.638C45.5875 10.362 45.7315 9.972 45.7315 9.468C45.7315 8.988 45.5875 8.61 45.2995 8.334C45.0235 8.058 44.6035 7.92 44.0395 7.92H42.1315V11.052ZM61.6317 5.364L57.2577 13.824V18H54.1797V13.824L49.8057 5.364H53.2977L55.7457 10.656L58.1757 5.364H61.6317ZM72.5019 9.432C72.5019 10.164 72.3339 10.836 71.9979 11.448C71.6619 12.048 71.1459 12.534 70.4499 12.906C69.7539 13.278 68.8899 13.464 67.8579 13.464H65.9499V18H62.8719V5.364H67.8579C68.8659 5.364 69.7179 5.538 70.4139 5.886C71.1099 6.234 71.6319 6.714 71.9799 7.326C72.3279 7.938 72.5019 8.64 72.5019 9.432ZM67.6239 11.016C68.2119 11.016 68.6499 10.878 68.9379 10.602C69.2259 10.326 69.3699 9.936 69.3699 9.432C69.3699 8.928 69.2259 8.538 68.9379 8.262C68.6499 7.986 68.2119 7.848 67.6239 7.848H65.9499V11.016H67.6239ZM83.1943 5.364V7.83H79.8463V18H76.7683V7.83H73.4203V5.364H83.1943ZM90.715 18.126C89.527 18.126 88.435 17.85 87.439 17.298C86.455 16.746 85.669 15.978 85.081 14.994C84.505 13.998 84.217 12.882 84.217 11.646C84.217 10.41 84.505 9.3 85.081 8.316C85.669 7.332 86.455 6.564 87.439 6.012C88.435 5.46 89.527 5.184 90.715 5.184C91.903 5.184 92.989 5.46 93.973 6.012C94.969 6.564 95.749 7.332 96.313 8.316C96.889 9.3 97.177 10.41 97.177 11.646C97.177 12.882 96.889 13.998 96.313 14.994C95.737 15.978 94.957 16.746 93.973 17.298C92.989 17.85 91.903 18.126 90.715 18.126ZM90.715 15.318C91.723 15.318 92.527 14.982 93.127 14.31C93.739 13.638 94.045 12.75 94.045 11.646C94.045 10.53 93.739 9.642 93.127 8.982C92.527 8.31 91.723 7.974 90.715 7.974C89.695 7.974 88.879 8.304 88.267 8.964C87.667 9.624 87.367 10.518 87.367 11.646C87.367 12.762 87.667 13.656 88.267 14.328C88.879 14.988 89.695 15.318 90.715 15.318Z" fill="#BE2EB8"/>
<defs>
<linearGradient id="paint0_linear" x1="10" y1="2" x2="10" y2="22" gradientUnits="userSpaceOnUse">
<stop stop-color="#BE2EB8"/>
<stop offset="1" stop-color="#2EC1C1"/>
</linearGradient>
</defs>
</svg>
